<?xml version="1.0" standalone="no"?>
<!DOCTYPE svg PUBLIC "-//W3C//DTD SVG 20010904//EN"
 "http://www.w3.org/TR/2001/REC-SVG-20010904/DTD/svg10.dtd">
<svg version="1.0" xmlns="http://www.w3.org/2000/svg"
 width="474.000000pt" height="330.000000pt" viewBox="0 0 474.000000 330.000000"
 preserveAspectRatio="xMidYMid meet">

<g transform="translate(0.000000,330.000000) scale(0.100000,-0.100000)"
fill="#000000" stroke="none">
<path d="M1315 2793 c-7 -38 -22 -437 -21 -549 1 -66 1 -66 156 -357 47 -89
84 -147 104 -162 17 -13 74 -40 126 -60 204 -78 250 -98 440 -192 80 -39 179
-94 220 -122 l75 -50 3 202 c4 259 -7 303 -89 386 -51 51 -145 100 -249 131
-149 43 -214 70 -320 129 -60 33 -123 62 -142 63 -30 3 -33 1 -30 -22 10 -69
97 -156 300 -299 100 -71 110 -83 93 -109 -6 -10 -20 -6 -61 18 -194 115 -339
251 -405 380 -38 76 -64 175 -96 369 -29 182 -59 281 -85 281 -6 0 -15 -17
-19 -37z"/>
<path d="M3629 2784 c-19 -45 -35 -124 -64 -304 -37 -238 -83 -341 -206 -467
-64 -65 -175 -151 -277 -213 -44 -27 -56 -30 -63 -19 -17 27 -3 42 106 120
197 140 285 233 285 299 0 37 -44 24 -185 -59 -75 -44 -148 -73 -286 -115
-120 -36 -186 -67 -247 -117 -58 -47 -86 -88 -102 -150 -11 -39 -22 -459 -13
-459 3 0 17 8 31 19 80 55 226 136 370 204 90 42 166 77 170 77 19 0 271 108
299 128 21 15 49 56 81 120 54 107 130 251 142 267 4 6 14 28 22 50 13 35 14
78 7 320 -4 154 -11 295 -15 313 -9 45 -31 40 -55 -14z"/>
<path d="M1482 2798 c-34 -64 -33 -80 24 -303 30 -118 54 -217 54 -220 0 -3
15 -5 34 -5 18 0 47 -5 65 -11 18 -6 34 -10 35 -8 3 4 -42 164 -100 353 -26
86 -83 216 -94 216 -4 0 -12 -10 -18 -22z"/>
<path d="M3477 2783 c-37 -58 -179 -514 -165 -528 2 -2 21 0 42 6 21 6 49 8
62 5 20 -5 24 -2 29 31 4 21 14 60 22 87 8 26 30 113 48 193 32 138 33 147 18
189 -8 24 -19 46 -24 49 -4 3 -19 -11 -32 -32z"/>
<path d="M1638 2705 c-13 -29 -16 -18 65 -305 48 -168 60 -194 102 -220 20
-12 39 -20 42 -16 8 7 -30 148 -98 365 -35 111 -62 173 -83 190 -13 11 -17 9
-28 -14z"/>
<path d="M3322 2700 c-27 -43 -72 -173 -121 -349 -29 -101 -51 -185 -49 -187
2 -2 22 8 45 21 39 24 42 29 71 132 17 60 47 163 67 231 36 121 40 172 12 172
-7 0 -18 -9 -25 -20z"/>
<path d="M1814 2525 c-6 -25 3 -64 63 -249 38 -117 36 -116 79 -32 l25 48 -42
102 c-24 55 -52 113 -63 129 -25 34 -54 35 -62 2z"/>
<path d="M3127 2521 c-32 -39 -86 -168 -99 -240 -6 -31 -14 -64 -19 -73 -14
-28 -11 -35 22 -47 61 -21 57 -28 130 226 32 112 34 163 5 163 -8 0 -25 -13
-39 -29z"/>
<path d="M527 1143 l-37 -4 2 -212 3 -212 30 0 30 0 3 188 c1 103 5 187 7 187
3 0 53 -50 112 -111 60 -62 142 -147 184 -190 45 -46 84 -79 96 -79 19 0 138
115 303 293 40 42 79 77 86 77 11 0 14 -35 14 -185 l0 -185 30 0 30 0 1 180
c0 99 1 197 1 218 l1 37 -53 -1 c-53 0 -53 0 -123 -75 -39 -40 -119 -126 -179
-189 l-110 -115 -186 193 c-103 106 -191 191 -197 190 -5 -1 -27 -3 -48 -5z"/>
<path d="M1583 1144 c-10 -4 -13 -55 -13 -204 0 -109 3 -205 6 -214 5 -14 41
-16 295 -16 l289 0 0 25 0 25 -260 0 -261 0 3 78 3 77 248 3 c239 2 247 3 247
22 0 19 -7 20 -250 20 l-250 0 0 70 0 70 260 0 c248 0 260 1 260 19 0 10 -6
21 -14 24 -18 7 -547 7 -563 1z"/>
<path d="M2287 1143 c-4 -3 -7 -103 -7 -221 l0 -214 293 4 c269 5 296 7 339
26 72 32 83 56 83 187 0 128 -11 158 -68 188 -21 11 -70 23 -110 28 -86 10
-521 12 -530 2z m614 -69 c18 -18 22 -37 26 -110 6 -123 -4 -162 -47 -185 -31
-17 -60 -19 -287 -19 l-252 0 0 162 c0 89 3 166 6 170 2 5 124 8 269 6 254 -3
264 -4 285 -24z"/>
<path d="M3142 1142 c-9 -7 -12 -57 -10 -218 l3 -209 280 -3 c154 -1 285 0
292 2 6 3 9 14 6 25 -5 21 -11 21 -259 21 l-254 0 0 80 0 80 245 0 c238 0 245
1 245 20 0 19 -7 20 -245 20 l-245 0 0 70 0 70 255 0 255 0 0 25 0 25 -277 0
c-153 0 -284 -4 -291 -8z"/>
<path d="M3921 1139 c-66 -13 -101 -51 -101 -108 1 -98 37 -111 324 -118 251
-6 266 -10 266 -69 0 -19 -4 -44 -10 -54 -17 -31 -105 -43 -296 -38 -190 4
-206 9 -219 69 -5 24 -12 29 -36 29 -26 0 -29 -3 -29 -31 0 -41 15 -66 53 -86
27 -15 65 -18 246 -21 235 -4 289 3 334 46 22 21 27 34 27 73 0 63 -16 95 -54
110 -20 8 -110 14 -246 16 -235 4 -251 6 -274 29 -23 23 -20 77 5 100 19 17
41 19 229 22 197 2 208 1 234 -19 14 -11 26 -29 26 -40 0 -15 7 -19 36 -19 34
0 36 1 29 28 -12 51 -32 70 -85 81 -59 13 -394 13 -459 0z"/>
<path d="M512 353 c2 -74 2 -75 5 -18 2 33 7 63 11 67 4 4 29 -24 56 -62 56
-78 55 -79 111 6 20 30 40 54 46 54 5 0 9 -28 9 -62 0 -34 3 -59 6 -55 6 5 9
84 5 130 0 10 -6 17 -13 15 -13 -5 -71 -79 -90 -115 -6 -13 -15 -23 -19 -23
-4 0 -30 32 -58 70 -28 39 -56 70 -61 70 -6 0 -9 -32 -8 -77z"/>
<path d="M2049 408 c-4 -105 -3 -138 4 -138 4 0 7 36 7 80 0 44 -2 80 -5 80
-3 0 -5 -10 -6 -22z"/>
<path d="M2394 406 c-7 -28 -2 -57 9 -57 4 1 37 2 75 3 l67 2 -70 5 c-66 6
-70 7 -70 31 0 24 4 25 70 31 l70 5 -72 2 c-69 2 -73 1 -79 -22z"/>
<path d="M4130 356 c0 -41 5 -78 10 -81 6 -4 10 23 10 74 0 47 -4 81 -10 81
-6 0 -10 -31 -10 -74z"/>
<path d="M1116 389 c-9 -48 -7 -109 4 -109 6 0 10 30 10 70 0 76 -4 87 -14 39z"/>
<path d="M3535 354 c4 -89 15 -94 15 -6 0 40 -4 72 -9 72 -5 0 -8 -29 -6 -66z"/>
<path d="M3779 398 c-4 -89 -3 -118 4 -118 4 0 7 32 7 70 0 39 -2 70 -5 70 -3
0 -5 -10 -6 -22z"/>
<path d="M1253 379 c-16 -6 -23 -17 -24 -36 -3 -63 6 -73 63 -73 47 0 68 8 68
27 0 12 -3 12 -16 -2 -11 -11 -30 -15 -58 -13 -41 3 -41 3 -41 43 0 37 2 40
30 43 17 2 34 7 38 12 11 10 -32 10 -60 -1z"/>
<path d="M1504 378 c-3 -4 9 -8 27 -8 18 0 29 3 25 7 -10 10 -46 11 -52 1z"/>
<path d="M2810 380 l-35 -5 -3 -70 c-2 -38 0 -66 4 -62 4 4 8 33 8 64 l1 58
50 5 c30 3 42 7 30 10 -11 3 -36 3 -55 0z"/>
<path d="M2973 379 c-19 -7 -23 -16 -23 -48 0 -22 4 -43 10 -46 6 -4 9 4 7 17
-2 21 2 23 46 23 26 -1 47 3 47 7 0 4 -23 8 -51 8 -54 0 -65 19 -18 30 13 3
19 9 14 12 -6 3 -20 2 -32 -3z"/>
<path d="M3020 380 c0 -4 13 -10 29 -12 17 -2 28 -1 26 3 -7 10 -55 18 -55 9z"/>
<path d="M3158 382 c-9 -2 -21 -16 -26 -31 -15 -42 5 -75 47 -79 48 -5 81 6
81 25 0 15 -1 15 -13 -1 -10 -13 -24 -17 -57 -14 l-45 3 0 40 0 40 43 3 c26 2
50 -2 59 -10 14 -11 15 -11 11 2 -5 15 -67 29 -100 22z"/>
<path d="M4230 381 c-10 -7 -1 -11 35 -13 51 -3 64 -19 24 -28 -13 -3 -38 -4
-56 -2 -28 4 -33 7 -27 24 4 14 2 18 -5 14 -6 -4 -11 -21 -11 -37 0 -22 4 -28
13 -22 6 4 37 8 67 8 56 1 71 13 52 43 -11 17 -73 25 -92 13z"/>
<path d="M4405 381 c-21 -4 -31 -13 -33 -28 -4 -24 10 -30 78 -35 53 -4 46
-31 -10 -39 l-45 -7 50 2 c40 1 51 5 53 20 5 25 -7 35 -48 37 -53 2 -70 9 -70
26 0 13 11 15 60 11 34 -2 55 -1 48 3 -25 13 -53 16 -83 10z"/>
<path d="M823 373 c-21 -8 -16 -81 6 -93 37 -19 121 -10 121 13 0 7 -4 7 -12
-1 -17 -17 -93 -15 -108 3 -18 22 -8 28 56 28 58 1 79 16 55 40 -10 9 -12 9
-9 -3 4 -20 -88 -32 -104 -13 -12 15 -1 21 57 26 l40 4 -45 1 c-25 0 -51 -2
-57 -5z"/>
<path d="M1048 373 c7 -3 16 -2 19 1 4 3 -2 6 -13 5 -11 0 -14 -3 -6 -6z"/>
<path d="M1170 323 c0 -31 3 -53 7 -49 11 11 13 106 2 106 -5 0 -9 -26 -9 -57z"/>
<path d="M1340 365 c7 -9 15 -13 17 -11 7 7 -7 26 -19 26 -6 0 -6 -6 2 -15z"/>
<path d="M1403 325 c0 -33 2 -45 4 -27 2 18 2 45 0 60 -2 15 -4 0 -4 -33z"/>
<path d="M1460 356 c0 -31 6 -34 13 -6 3 11 1 23 -4 26 -5 3 -9 -6 -9 -20z"/>
<path d="M1574 367 c3 -10 6 -36 6 -58 0 -21 4 -39 9 -39 13 0 4 91 -10 104
-9 8 -10 6 -5 -7z"/>
<path d="M1646 371 c-5 -8 84 -3 93 5 2 2 -16 4 -42 4 -25 0 -48 -4 -51 -9z"/>
<path d="M1924 356 c-3 -14 -4 -33 -1 -43 3 -11 5 -6 6 13 0 16 6 35 13 42 9
9 9 12 0 12 -6 0 -14 -11 -18 -24z"/>
<path d="M2148 373 c12 -2 32 -2 45 0 12 2 2 4 -23 4 -25 0 -35 -2 -22 -4z"/>
<path d="M2597 373 c-10 -10 -8 -43 2 -43 5 0 7 9 4 19 -4 17 1 20 43 24 l49
3 -46 2 c-25 1 -49 -1 -52 -5z"/>
<path d="M2897 337 c6 -50 7 -49 -67 -60 -15 -3 -9 -5 16 -6 22 0 45 4 52 11
14 14 16 67 3 87 -5 8 -7 -4 -4 -32z"/>
<path d="M3303 330 c0 -30 2 -43 4 -27 2 15 2 39 0 55 -2 15 -4 2 -4 -28z"/>
<path d="M3367 373 c-3 -4 20 -8 51 -8 l57 0 -1 -47 c0 -27 3 -48 8 -48 5 0 8
24 6 53 l-3 52 -57 3 c-31 2 -58 -1 -61 -5z"/>
<path d="M3599 378 c-5 -26 -3 -98 3 -98 4 0 8 23 8 50 0 28 -2 50 -5 50 -3 0
-5 -1 -6 -2z"/>
<path d="M3662 368 c-7 -7 -11 -26 -11 -42 l2 -31 4 30 c3 17 9 36 15 43 13
15 6 16 -10 0z"/>
<path d="M3840 372 c0 -4 17 -6 38 -4 58 5 62 10 10 11 -27 1 -48 -3 -48 -7z"/>
<path d="M3940 371 c0 -5 5 -11 12 -13 7 -3 8 -9 3 -18 -12 -19 -12 -71 0 -67
22 7 17 107 -5 107 -6 0 -10 -4 -10 -9z"/>
<path d="M4028 373 c7 -3 16 -2 19 1 4 3 -2 6 -13 5 -11 0 -14 -3 -6 -6z"/>
<path d="M4073 373 c9 -2 23 -2 30 0 6 3 -1 5 -18 5 -16 0 -22 -2 -12 -5z"/>
<path d="M988 340 c-8 -49 13 -70 66 -68 l41 1 -45 6 c-45 6 -45 6 -50 51 l-5
45 -7 -35z"/>
<path d="M1755 319 c-1 -27 3 -49 7 -49 10 0 11 87 1 93 -5 3 -8 -17 -8 -44z"/>
<path d="M2105 347 c-4 -17 -3 -37 3 -50 10 -22 11 -22 11 4 1 24 4 25 47 23
25 -1 52 0 60 3 16 6 19 43 4 43 -5 0 -7 -7 -4 -15 5 -12 -4 -15 -49 -15 -45
0 -56 3 -60 18 -3 12 -6 10 -12 -11z"/>
<path d="M4009 343 c-4 -12 -1 -32 5 -45 9 -19 20 -23 56 -24 l45 -2 -45 7
c-44 6 -45 7 -50 46 -4 31 -7 35 -11 18z"/>
<path d="M3070 340 c0 -5 5 -10 10 -10 6 0 10 5 10 10 0 6 -4 10 -10 10 -5 0
-10 -4 -10 -10z"/>
<path d="M1648 329 c-20 -11 -24 -34 -7 -45 7 -4 9 0 5 14 -7 22 -2 25 64 35
18 3 15 5 -10 5 -19 1 -43 -3 -52 -9z"/>
<path d="M3358 322 c-20 -23 4 -47 48 -48 30 -1 32 -1 9 3 -36 6 -59 23 -47
35 5 5 28 12 53 17 l44 9 -48 -1 c-27 0 -53 -7 -59 -15z"/>
<path d="M3864 332 c5 -9 53 -8 63 1 3 4 -10 7 -31 7 -20 0 -35 -4 -32 -8z"/>
<path d="M2658 323 c6 -2 18 -2 25 0 6 3 1 5 -13 5 -14 0 -19 -2 -12 -5z"/>
<path d="M1462 295 c0 -16 2 -22 5 -12 2 9 2 23 0 30 -3 6 -5 -1 -5 -18z"/>
<path d="M2398 295 c4 -24 7 -25 81 -23 l76 2 -72 3 c-65 3 -73 6 -73 23 0 11
-4 20 -9 20 -4 0 -6 -11 -3 -25z"/>
<path d="M2712 300 c0 -14 2 -19 5 -12 2 6 2 18 0 25 -3 6 -5 1 -5 -13z"/>
<path d="M3830 300 c0 -11 4 -20 9 -20 5 0 7 9 4 20 -3 11 -7 20 -9 20 -2 0
-4 -9 -4 -20z"/>
<path d="M4199 288 c10 -13 27 -18 61 -18 34 0 51 5 61 18 11 14 11 15 -1 5
-8 -7 -35 -13 -60 -13 -25 0 -52 6 -60 13 -12 10 -12 9 -1 -5z"/>
<path d="M4370 290 c0 -5 5 -10 11 -10 5 0 7 5 4 10 -3 6 -8 10 -11 10 -2 0
-4 -4 -4 -10z"/>
<path d="M1930 278 c0 -4 21 -8 48 -7 52 1 48 6 -10 11 -21 2 -38 0 -38 -4z"/>
<path d="M2180 280 l-45 -7 40 -1 c22 -1 47 3 55 8 8 5 11 9 5 8 -5 0 -30 -4
-55 -8z"/>
<path d="M1678 273 c12 -2 32 -2 45 0 12 2 2 4 -23 4 -25 0 -35 -2 -22 -4z"/>
<path d="M2628 273 c12 -2 32 -2 45 0 12 2 2 4 -23 4 -25 0 -35 -2 -22 -4z"/>
<path d="M2998 273 c12 -2 32 -2 45 0 12 2 2 4 -23 4 -25 0 -35 -2 -22 -4z"/>
<path d="M3698 273 c12 -2 30 -2 40 0 9 3 -1 5 -23 4 -22 0 -30 -2 -17 -4z"/>
<path d="M3878 273 c12 -2 30 -2 40 0 9 3 -1 5 -23 4 -22 0 -30 -2 -17 -4z"/>
</g>
</svg>
